<svg xmlns="http://www.w3.org/2000/svg" width="262.37" height="35" viewBox="0 0 262.37 35"><rect class="svg__rect" x="0" y="0" width="134.76" height="35" fill="#FF3332"/><rect class="svg__rect" x="132.76" y="0" width="129.61" height="35" fill="#BF1D1C"/><path class="svg__text" d="M13.95 18.19L13.95 18.19L13.95 17.39Q13.95 16.19 14.38 15.27Q14.80 14.35 15.60 13.85Q16.40 13.35 17.45 13.35L17.45 13.35Q18.86 13.35 19.73 14.12Q20.59 14.89 20.73 16.29L20.73 16.29L19.25 16.29Q19.14 15.37 18.71 14.96Q18.28 14.55 17.45 14.55L17.45 14.55Q16.48 14.55 15.97 15.26Q15.45 15.96 15.44 17.33L15.44 17.33L15.44 18.09Q15.44 19.47 15.93 20.20Q16.43 20.92 17.38 20.92L17.38 20.92Q18.25 20.92 18.69 20.53Q19.13 20.14 19.25 19.22L19.25 19.22L20.73 19.22Q20.60 20.59 19.72 21.35Q18.84 22.12 17.38 22.12L17.38 22.12Q16.36 22.12 15.59 21.63Q14.81 21.15 14.39 20.26Q13.97 19.37 13.95 18.19ZM30.62 22L25.04 22L25.04 13.47L30.58 13.47L30.58 14.66L26.52 14.66L26.52 17.02L30.03 17.02L30.03 18.19L26.52 18.19L26.52 20.82L30.62 20.82L30.62 22ZM36.30 22L34.81 22L34.81 13.47L37.81 13.47Q39.29 13.47 40.09 14.13Q40.89 14.79 40.89 16.05L40.89 16.05Q40.89 16.90 40.48 17.48Q40.07 18.06 39.33 18.37L39.33 18.37L41.25 21.92L41.25 22L39.66 22L37.95 18.71L36.30 18.71L36.30 22ZM36.30 14.66L36.30 17.52L37.82 17.52Q38.57 17.52 38.99 17.15Q39.41 16.77 39.41 16.11L39.41 16.11Q39.41 15.43 39.02 15.05Q38.63 14.68 37.86 14.66L37.86 14.66L36.30 14.66ZM46.97 14.66L44.33 14.66L44.33 13.47L51.10 13.47L51.10 14.66L48.44 14.66L48.44 22L46.97 22L46.97 14.66ZM56.42 22L54.95 22L54.95 13.47L56.42 13.47L56.42 22ZM62.72 22L61.23 22L61.23 13.47L66.65 13.47L66.65 14.66L62.72 14.66L62.72 17.20L66.15 17.20L66.15 18.38L62.72 18.38L62.72 22ZM72.38 22L70.90 22L70.90 13.47L72.38 13.47L72.38 22ZM82.77 22L77.19 22L77.19 13.47L82.72 13.47L82.72 14.66L78.67 14.66L78.67 17.02L82.17 17.02L82.17 18.19L78.67 18.19L78.67 20.82L82.77 20.82L82.77 22ZM89.42 22L86.96 22L86.96 13.47L89.48 13.47Q90.61 13.47 91.49 13.97Q92.36 14.48 92.84 15.40Q93.32 16.33 93.32 17.52L93.32 17.52L93.32 17.95Q93.32 19.16 92.84 20.08Q92.36 21.00 91.46 21.50Q90.57 22 89.42 22L89.42 22ZM88.44 14.66L88.44 20.82L89.41 20.82Q90.58 20.82 91.20 20.09Q91.82 19.36 91.84 17.99L91.84 17.99L91.84 17.52Q91.84 16.13 91.23 15.40Q90.63 14.66 89.48 14.66L89.48 14.66L88.44 14.66ZM106.88 22L103.77 22L103.77 13.47L106.69 13.47Q108.14 13.47 108.89 14.05Q109.65 14.63 109.65 15.78L109.65 15.78Q109.65 16.36 109.33 16.83Q109.02 17.30 108.41 17.56L108.41 17.56Q109.10 17.75 109.48 18.26Q109.85 18.78 109.85 19.51L109.85 19.51Q109.85 20.71 109.08 21.36Q108.31 22 106.88 22L106.88 22ZM105.25 18.15L105.25 20.82L106.89 20.82Q107.59 20.82 107.98 20.47Q108.38 20.13 108.38 19.51L108.38 19.51Q108.38 18.18 107.02 18.15L107.02 18.15L105.25 18.15ZM105.25 14.66L105.25 17.06L106.70 17.06Q107.39 17.06 107.78 16.75Q108.17 16.43 108.17 15.86L108.17 15.86Q108.17 15.23 107.81 14.95Q107.45 14.66 106.69 14.66L106.69 14.66L105.25 14.66ZM116.36 18.86L113.50 13.47L115.14 13.47L117.11 17.51L119.07 13.47L120.71 13.47L117.85 18.86L117.85 22L116.36 22L116.36 18.86Z" fill="#FFFFFF"/><path class="svg__text" d="M153.69 22L146.95 22L146.95 13.60L153.54 13.60L153.54 15.44L149.30 15.44L149.30 16.85L153.04 16.85L153.04 18.63L149.30 18.63L149.30 20.17L153.69 20.17L153.69 22ZM164.88 22L158.50 22L158.50 13.60L160.88 13.60L160.88 20.11L164.88 20.11L164.88 22ZM168.87 17.80L168.87 17.80Q168.87 16.55 169.48 15.55Q170.08 14.56 171.14 14.00Q172.21 13.43 173.54 13.43L173.54 13.43Q174.87 13.43 175.93 14.00Q176.99 14.56 177.60 15.55Q178.21 16.55 178.21 17.80L178.21 17.80Q178.21 19.05 177.60 20.04Q176.99 21.04 175.93 21.60Q174.87 22.17 173.54 22.17L173.54 22.17Q172.21 22.17 171.14 21.60Q170.08 21.04 169.48 20.04Q168.87 19.05 168.87 17.80ZM171.27 17.80L171.27 17.80Q171.27 18.51 171.57 19.05Q171.87 19.60 172.39 19.90Q172.90 20.20 173.54 20.20L173.54 20.20Q174.18 20.20 174.69 19.90Q175.21 19.60 175.51 19.05Q175.81 18.51 175.81 17.80L175.81 17.80Q175.81 17.09 175.51 16.54Q175.21 16 174.69 15.70Q174.18 15.40 173.54 15.40L173.54 15.40Q172.90 15.40 172.39 15.70Q171.87 16 171.57 16.54Q171.27 17.09 171.27 17.80ZM185.27 22L182.94 22L182.94 13.60L184.89 13.60L188.60 18.07L188.60 13.60L190.93 13.60L190.93 22L188.98 22L185.27 17.52L185.27 22ZM205.26 22L203.06 22L203.06 13.60L205.02 13.60L207.97 18.45L210.86 13.60L212.81 13.60L212.83 22L210.65 22L210.63 17.55L208.47 21.17L207.41 21.17L205.26 17.67L205.26 22ZM217.92 18.26L217.92 18.26L217.92 13.60L220.30 13.60L220.30 18.19Q220.30 20.20 221.90 20.20L221.90 20.20Q223.48 20.20 223.48 18.19L223.48 18.19L223.48 13.60L225.82 13.60L225.82 18.26Q225.82 20.13 224.78 21.15Q223.74 22.17 221.87 22.17L221.87 22.17Q220.00 22.17 218.96 21.15Q217.92 20.13 217.92 18.26ZM230.32 21.24L230.32 21.24L231.10 19.49Q231.66 19.86 232.41 20.09Q233.15 20.32 233.87 20.32L233.87 20.32Q235.24 20.32 235.24 19.64L235.24 19.64Q235.24 19.28 234.85 19.11Q234.46 18.93 233.60 18.74L233.60 18.74Q232.65 18.53 232.01 18.30Q231.38 18.06 230.92 17.55Q230.47 17.03 230.47 16.16L230.47 16.16Q230.47 15.39 230.89 14.77Q231.31 14.15 232.14 13.79Q232.98 13.43 234.18 13.43L234.18 13.43Q235.01 13.43 235.81 13.62Q236.62 13.80 237.23 14.17L237.23 14.17L236.50 15.93Q235.30 15.28 234.17 15.28L234.17 15.28Q233.46 15.28 233.14 15.49Q232.82 15.70 232.82 16.04L232.82 16.04Q232.82 16.37 233.20 16.54Q233.58 16.71 234.43 16.89L234.43 16.89Q235.40 17.10 236.03 17.33Q236.65 17.56 237.12 18.07Q237.58 18.58 237.58 19.46L237.58 19.46Q237.58 20.21 237.16 20.83Q236.74 21.44 235.90 21.80Q235.06 22.17 233.86 22.17L233.86 22.17Q232.84 22.17 231.88 21.92Q230.92 21.67 230.32 21.24ZM244.51 22L242.16 22L242.16 13.60L244.51 13.60L244.51 17.09L247.76 13.60L250.38 13.60L246.95 17.32L250.56 22L247.80 22L245.40 18.95L244.51 19.90L244.51 22Z" fill="#FFFFFF" x="145.76"/></svg>